<mxfile host="app.diagrams.net" agent="Mozilla/5.0 (Windows NT 10.0; Win64; x64) AppleWebKit/537.36 (KHTML, like Gecko) Chrome/127.0.0.0 Safari/537.36 Edg/127.0.0.0" version="24.7.6">
  <diagram name="第 1 页" id="aKhjywSmSyIfMqFl346a">
    <mxGraphModel dx="2995" dy="1818" grid="1" gridSize="10" guides="1" tooltips="1" connect="1" arrows="1" fold="1" page="1" pageScale="1" pageWidth="4681" pageHeight="3300" math="0" shadow="0">
      <root>
        <mxCell id="0" />
        <mxCell id="1" parent="0" />
        <mxCell id="AWAHnnfGsUUnSCSiyDVp-1" value="&lt;font style=&quot;font-size: 72px;&quot;&gt;应用层&lt;/font&gt;" style="rounded=1;whiteSpace=wrap;html=1;fillColor=#fad9d5;strokeColor=#ae4132;" parent="1" vertex="1">
          <mxGeometry x="880" y="120" width="1520" height="240" as="geometry" />
        </mxCell>
        <mxCell id="AWAHnnfGsUUnSCSiyDVp-2" value="&lt;span style=&quot;font-size: 72px;&quot;&gt;内核&lt;/span&gt;" style="rounded=1;whiteSpace=wrap;html=1;fillColor=#b1ddf0;strokeColor=#10739e;" parent="1" vertex="1">
          <mxGeometry x="880" y="480" width="1520" height="240" as="geometry" />
        </mxCell>
        <mxCell id="AWAHnnfGsUUnSCSiyDVp-3" value="&lt;span style=&quot;font-size: 72px;&quot;&gt;CPU&lt;/span&gt;" style="rounded=1;whiteSpace=wrap;html=1;fillColor=#d5e8d4;strokeColor=#82b366;" parent="1" vertex="1">
          <mxGeometry x="880" y="840" width="440" height="240" as="geometry" />
        </mxCell>
        <mxCell id="AWAHnnfGsUUnSCSiyDVp-6" value="&lt;span style=&quot;font-size: 72px;&quot;&gt;硬件设备&lt;/span&gt;" style="rounded=1;whiteSpace=wrap;html=1;fillColor=#d5e8d4;strokeColor=#82b366;" parent="1" vertex="1">
          <mxGeometry x="1960" y="850" width="440" height="240" as="geometry" />
        </mxCell>
        <mxCell id="AWAHnnfGsUUnSCSiyDVp-7" value="&lt;span style=&quot;font-size: 72px;&quot;&gt;内存&lt;/span&gt;" style="rounded=1;whiteSpace=wrap;html=1;fillColor=#d5e8d4;strokeColor=#82b366;" parent="1" vertex="1">
          <mxGeometry x="1420" y="840" width="440" height="240" as="geometry" />
        </mxCell>
        <mxCell id="AWAHnnfGsUUnSCSiyDVp-8" value="" style="shape=flexArrow;endArrow=classic;startArrow=classic;html=1;rounded=0;fillColor=#1d1b1b;strokeWidth=9;" parent="1" edge="1">
          <mxGeometry width="100" height="100" relative="1" as="geometry">
            <mxPoint x="1638.75" y="540" as="sourcePoint" />
            <mxPoint x="1638.75" y="300" as="targetPoint" />
          </mxGeometry>
        </mxCell>
        <mxCell id="AWAHnnfGsUUnSCSiyDVp-9" value="" style="shape=flexArrow;endArrow=classic;startArrow=classic;html=1;rounded=0;fillColor=#1d1b1b;strokeWidth=9;" parent="1" edge="1">
          <mxGeometry width="100" height="100" relative="1" as="geometry">
            <mxPoint x="1638.75" y="895" as="sourcePoint" />
            <mxPoint x="1638.75" y="655" as="targetPoint" />
          </mxGeometry>
        </mxCell>
        <mxCell id="AWAHnnfGsUUnSCSiyDVp-10" value="" style="shape=flexArrow;endArrow=classic;startArrow=classic;html=1;rounded=0;fillColor=#1d1b1b;strokeWidth=9;" parent="1" edge="1">
          <mxGeometry width="100" height="100" relative="1" as="geometry">
            <mxPoint x="2178.75" y="902" as="sourcePoint" />
            <mxPoint x="2178.75" y="662" as="targetPoint" />
          </mxGeometry>
        </mxCell>
        <mxCell id="AWAHnnfGsUUnSCSiyDVp-11" value="" style="shape=flexArrow;endArrow=classic;startArrow=classic;html=1;rounded=0;fillColor=#1d1b1b;strokeWidth=9;" parent="1" edge="1">
          <mxGeometry width="100" height="100" relative="1" as="geometry">
            <mxPoint x="1098.75" y="898" as="sourcePoint" />
            <mxPoint x="1098.75" y="658" as="targetPoint" />
          </mxGeometry>
        </mxCell>
        <mxCell id="HUrOwZMVoPySZ_ZFf2lJ-2" value="&lt;font style=&quot;font-size: 36px;&quot;&gt;&lt;b&gt;JYLiang&lt;/b&gt;&lt;/font&gt;" style="text;html=1;align=center;verticalAlign=middle;whiteSpace=wrap;rounded=0;" vertex="1" parent="1">
          <mxGeometry x="2390" y="1080" width="210" height="30" as="geometry" />
        </mxCell>
      </root>
    </mxGraphModel>
  </diagram>
</mxfile>
